<?xml version="1.0" encoding="UTF-8"?>
<!DOCTYPE svg PUBLIC "-//W3C//DTD SVG 1.1//EN" "http://www.w3.org/Graphics/SVG/1.1/DTD/svg11.dtd">
<!-- Creator: CorelDRAW -->
<svg xmlns="http://www.w3.org/2000/svg" xml:space="preserve" width="19.9562mm" height="19.9562mm" version="1.1" style="shape-rendering:geometricPrecision; text-rendering:geometricPrecision; image-rendering:optimizeQuality; fill-rule:evenodd; clip-rule:evenodd"
viewBox="0 0 500.34 500.34"
 xmlns:xlink="http://www.w3.org/1999/xlink"
 xmlns:xodm="http://www.corel.com/coreldraw/odm/2003">
 <defs>
  <style type="text/css">
   <![CDATA[
    .fil0 {fill:#1A1A1A}
    .fil2 {fill:#FF7416}
    .fil1 {fill:#FF7416;fill-rule:nonzero}
   ]]>
  </style>
 </defs>
 <g id="Слой_x0020_1">
  <metadata id="CorelCorpID_0Corel-Layer"/>
  <g id="_1690484784560">
   <polygon class="fil0" points="-0,0 500.34,0 500.34,500.34 -0,500.34 "/>
   <g>
    <path class="fil1" d="M45.8 250.44c0,-18.73 2.4,-36.83 7.22,-54.3 4.82,-17.48 11.68,-33.79 20.6,-48.95 8.92,-15.16 19.61,-28.98 32.01,-41.46 12.4,-12.48 26.12,-23.18 41.28,-32.01 15.16,-8.83 31.48,-15.69 48.86,-20.6 17.39,-4.9 35.49,-7.31 54.39,-7.31 18.72,0 36.82,2.41 54.21,7.31 17.38,4.9 33.61,11.77 48.77,20.6 15.16,8.83 28.98,19.53 41.46,32.01 12.48,12.48 23.18,26.3 32.01,41.46 8.83,15.16 15.69,31.48 20.6,48.95 4.91,17.48 7.31,35.58 7.31,54.3 0,18.9 -2.4,37 -7.31,54.39 -4.9,17.39 -11.77,33.62 -20.6,48.68 -8.83,15.07 -19.53,28.8 -32.01,41.19 -12.49,12.4 -26.31,23.1 -41.46,32.01 -15.16,8.92 -31.39,15.78 -48.77,20.6 -17.39,4.82 -35.49,7.22 -54.21,7.22 -18.9,0 -37,-2.41 -54.39,-7.22 -17.39,-4.82 -33.7,-11.68 -48.86,-20.6 -15.16,-8.91 -28.89,-19.61 -41.28,-32.01 -12.4,-12.39 -23.09,-26.12 -32.01,-41.19 -8.92,-15.07 -15.78,-31.3 -20.6,-48.68 -4.82,-17.39 -7.22,-35.49 -7.22,-54.39zm73.29 0c0,18.55 3.39,35.84 10.07,51.89 6.69,16.14 15.87,30.23 27.64,42.18 11.77,12.04 25.68,21.49 41.64,28.44 15.96,6.95 33.17,10.43 51.72,10.43 18.37,0 35.58,-3.48 51.53,-10.43 15.96,-6.96 29.79,-16.41 41.55,-28.44 11.77,-11.95 21.05,-26.04 27.82,-42.18 6.78,-16.05 10.16,-33.35 10.16,-51.89 0,-18.37 -3.39,-35.67 -10.16,-51.89 -6.77,-16.32 -16.05,-30.49 -27.82,-42.44 -11.77,-12.04 -25.59,-21.58 -41.55,-28.62 -15.96,-7.04 -33.17,-10.52 -51.53,-10.52 -18.55,0 -35.76,3.48 -51.72,10.52 -15.96,7.05 -29.87,16.59 -41.64,28.62 -11.77,11.95 -20.95,26.12 -27.64,42.44 -6.69,16.23 -10.07,33.53 -10.07,51.89z"/>
    <path class="fil2" d="M313.71 252.93l0 32.06 -31.77 18.34 -23.77 13.72c0,-0 -0,-0 -0,-0l0 -64.12 55.54 -32.07 0 32.06zm0 67.89l0 77.75 -55.54 0 0 -63.56 55.54 -32.07 0 17.88zm-71.55 77.75l-55.54 0 0 -59.79 0 -0.08 0 -35.76 55.54 32.06 0.01 63.57zm8 -159.51l55.54 -32.07 -23.76 -13.72 -31.78 -18.34 -55.53 32.06 55.53 32.06z"/>
    <polygon class="fil2" points="242.16,317.06 242.16,252.93 186.62,220.87 186.63,285 "/>
   </g>
  </g>
 </g>
</svg>
