<?xml version="1.0" encoding="UTF-8"?>
<!DOCTYPE svg PUBLIC "-//W3C//DTD SVG 1.1//EN" "http://www.w3.org/Graphics/SVG/1.1/DTD/svg11.dtd">
<!-- Creator: CorelDRAW -->
<svg xmlns="http://www.w3.org/2000/svg" xml:space="preserve" width="67.2969mm" height="36.2855mm" version="1.1" style="shape-rendering:geometricPrecision; text-rendering:geometricPrecision; image-rendering:optimizeQuality; fill-rule:evenodd; clip-rule:evenodd"
viewBox="0 0 3780.56 2038.42"
 xmlns:xlink="http://www.w3.org/1999/xlink"
 xmlns:xodm="http://www.corel.com/coreldraw/odm/2003">
 <defs>
  <style type="text/css">
   <![CDATA[
    .fil2 {fill:#FF7416}
    .fil1 {fill:#1A1A1A;fill-rule:nonzero}
    .fil0 {fill:#FF7416;fill-rule:nonzero}
   ]]>
  </style>
 </defs>
 <g id="Слой_x0020_1">
  <metadata id="CorelCorpID_0Corel-Layer"/>
  <g id="_1690485638672">
   <path class="fil0" d="M1971.25 458.52c0,-41.96 5.39,-82.51 16.18,-121.67 10.79,-39.16 26.17,-75.72 46.16,-109.69 19.98,-33.96 43.95,-64.93 71.72,-92.9 27.77,-27.97 58.54,-51.95 92.5,-71.72 33.96,-19.78 70.52,-35.17 109.48,-46.16 38.96,-10.99 79.52,-16.38 121.88,-16.38 41.95,0 82.51,5.39 121.47,16.38 38.95,10.99 75.32,26.38 109.28,46.16 33.96,19.77 64.93,43.75 92.91,71.72 27.97,27.97 51.94,58.94 71.72,92.9 19.78,33.96 35.16,70.53 46.15,109.69 10.99,39.16 16.38,79.72 16.38,121.67 0,42.35 -5.39,82.91 -16.38,121.87 -10.99,38.96 -26.37,75.32 -46.15,109.09 -19.78,33.76 -43.75,64.53 -71.72,92.3 -27.98,27.77 -58.94,51.75 -92.91,71.72 -33.96,19.98 -70.33,35.36 -109.28,46.16 -38.96,10.79 -79.52,16.18 -121.47,16.18 -42.36,0 -82.91,-5.39 -121.88,-16.18 -38.96,-10.79 -75.52,-26.17 -109.48,-46.16 -33.96,-19.97 -64.73,-43.95 -92.5,-71.72 -27.77,-27.77 -51.74,-58.54 -71.72,-92.3 -19.98,-33.76 -35.36,-70.13 -46.16,-109.09 -10.79,-38.96 -16.18,-79.52 -16.18,-121.87zm164.23 0c0,41.55 7.59,80.31 22.57,116.28 14.98,36.16 35.57,67.73 61.94,94.5 26.38,26.97 57.54,48.14 93.3,63.73 35.76,15.58 74.32,23.38 115.88,23.38 41.16,0 79.72,-7.79 115.47,-23.38 35.76,-15.59 66.74,-36.76 93.1,-63.73 26.38,-26.77 47.16,-58.34 62.33,-94.5 15.18,-35.96 22.77,-74.72 22.77,-116.28 0,-41.16 -7.59,-79.92 -22.77,-116.28 -15.18,-36.57 -35.96,-68.33 -62.33,-95.1 -26.36,-26.97 -57.34,-48.35 -93.1,-64.14 -35.76,-15.78 -74.32,-23.57 -115.47,-23.57 -41.56,0 -80.12,7.79 -115.88,23.57 -35.76,15.79 -66.93,37.17 -93.3,64.14 -26.37,26.77 -46.95,58.54 -61.94,95.1 -14.98,36.36 -22.57,75.12 -22.57,116.28z"/>
   <path class="fil1" d="M723.92 85.86c4.4,2.8 7.99,6.2 10.79,10.2 2.8,4 4.2,8.4 4.2,13.2 0,3.2 -0.6,6 -1.8,8.4 -1.2,2.4 -2.6,5.2 -4.2,8.4l-60.58 88.36c-5.6,8 -11.8,12 -18.59,12 -2,0 -4.6,-0.4 -7.99,-1.2 -3.4,-0.8 -7.2,-2.6 -11.2,-5.4 -26.39,-17.99 -53.58,-32.39 -81.77,-42.98 -28.19,-10.6 -58.78,-15.8 -91.57,-15.8 -42.78,0 -82.37,8 -118.75,23.99 -36.39,15.99 -67.77,37.39 -94.36,64.58 -26.59,27.19 -47.38,58.78 -62.37,94.96 -14.99,35.99 -22.59,74.17 -22.59,114.56 0,41.58 7.8,80.16 23.19,116.15 15.4,35.78 36.19,67.37 62.58,94.16 26.39,26.99 57.38,48.18 92.77,63.58 35.39,15.39 72.97,22.99 112.96,22.99 59.58,0 117.15,-18.59 172.73,-55.78l19.79 -10.79c0.8,0 1.6,-0.2 2.4,-0.4 0.8,-0.2 1.6,-0.2 2.4,-0.2 2,0 5.6,2.4 10.8,7.2 5.2,4.8 10.99,10.99 17.39,18.59 6.4,7.6 13.2,15.99 20.19,25.39 7,9.4 13.4,18.59 19.2,27.39 5.8,8.8 10.39,16.99 13.99,24.39 3.6,7.4 5.4,13.2 5.4,17.2 0,5.2 -1.2,9.6 -3.8,12.99 -2.6,3.4 -6.2,6.6 -10.6,9.8 -37.98,26.59 -79.17,47.38 -123.75,62.37 -44.58,14.99 -92.16,22.59 -142.54,22.59 -42.39,0 -82.97,-5.4 -121.96,-16.2 -38.98,-10.8 -75.57,-26.19 -109.56,-46.18 -33.99,-19.99 -64.97,-43.98 -92.77,-71.77 -27.99,-27.79 -51.78,-58.58 -71.57,-92.36 -19.99,-33.79 -35.39,-70.17 -46.18,-109.16 -10.79,-38.99 -16.19,-79.57 -16.19,-121.95 0,-41.99 5.4,-82.57 16.19,-121.75 10.8,-39.18 26.39,-75.77 46.39,-109.76 20.19,-33.99 43.98,-64.97 71.97,-92.96 27.79,-27.99 58.78,-51.98 92.77,-71.77 33.99,-19.79 70.57,-35.19 109.56,-46.18 38.98,-10.99 79.57,-16.39 121.95,-16.39 49.18,0 95.96,7.4 140.35,22.19 44.38,14.99 85.97,35.99 124.75,63.37z"/>
   <path class="fil1" d="M997.41 38.68c0,-6.8 2.4,-12.8 7.2,-18.2 4.8,-5.4 11.2,-8.2 19.19,-8.2l110.96 0c6.8,0 13.2,2.6 19.2,7.6 5.99,4.99 8.99,11.19 8.99,18.79l0 435.43 418.64 0 0 -435.43c0,-7.2 2.6,-13.4 7.6,-18.59 5,-5.2 11.4,-7.8 19.39,-7.8l109.16 0c7.6,0 14.39,2.4 20.39,7 6,4.6 8.99,10.79 8.99,18.79l0 839.07c0,17.59 -9.6,26.39 -28.79,26.39l-109.76 0c-8.4,0 -14.99,-2.2 -19.79,-6.6 -4.8,-4.4 -7.2,-11 -7.2,-19.8l0 -247.1 -418.64 0 0 247.1c0,17.59 -9.8,26.39 -29.59,26.39l-109.56 0c-16.79,0 -25.59,-8.2 -26.39,-24.59l0 -840.27z"/>
   <path class="fil1" d="M3681 12.29c7.99,0 13.99,2.4 17.79,7 3.8,4.6 5.6,10.39 5.6,17.59l0 103.76c0,6.8 -2,12.4 -6.2,16.99 -4.2,4.6 -10.2,7 -17.79,7l-394.04 0 0 177.53 222.31 0c39.78,0 76.57,7.99 109.76,23.79 33.39,15.79 62.18,36.58 85.97,62.58 23.99,26.19 42.78,55.98 56.18,89.77 13.39,33.98 19.99,68.77 19.99,104.76 0,36.98 -6.8,72.17 -20.39,106.16 -13.59,33.79 -32.58,63.57 -57.18,89.36 -24.59,25.79 -53.78,46.39 -87.56,61.78 -33.79,15.39 -70.57,23.19 -110.56,23.19l-363.06 0c-15.59,0 -23.39,-7.6 -23.39,-22.79l0 -845.67c0,-6.8 2,-12.39 5.8,-16.59 3.8,-4.2 9.6,-6.2 17.59,-6.2l539.19 0zm-69.58 611.76c0,-17.59 -3.2,-34.78 -9.8,-51.38 -6.6,-16.59 -15.79,-31.18 -27.59,-43.78 -11.79,-12.59 -25.79,-22.59 -41.98,-30.19 -16.2,-7.6 -33.59,-11.4 -52.38,-11.4l-193.32 0 0 269.9 193.32 0c19.19,0 36.78,-3.8 52.98,-11.2 16.19,-7.4 29.99,-17.2 41.58,-29.59 11.59,-12.39 20.79,-26.59 27.39,-42.58 6.6,-15.99 9.8,-32.59 9.8,-49.78z"/>
   <g>
    <path class="fil0" d="M723.92 1207.54c4.4,2.8 7.99,6.2 10.79,10.2 2.8,4 4.2,8.4 4.2,13.2 0,3.2 -0.6,6 -1.8,8.4 -1.2,2.4 -2.6,5.2 -4.2,8.4l-60.58 88.36c-5.6,8 -11.8,12 -18.59,12 -2,0 -4.6,-0.4 -7.99,-1.2 -3.4,-0.8 -7.2,-2.6 -11.2,-5.4 -26.39,-17.99 -53.58,-32.39 -81.77,-42.98 -28.19,-10.6 -58.78,-15.8 -91.57,-15.8 -42.78,0 -82.37,8 -118.75,23.99 -36.39,15.99 -67.77,37.39 -94.36,64.58 -26.59,27.19 -47.38,58.78 -62.37,94.96 -14.99,35.99 -22.59,74.17 -22.59,114.56 0,41.58 7.8,80.16 23.19,116.15 15.4,35.78 36.19,67.37 62.58,94.16 26.39,26.99 57.38,48.18 92.77,63.58 35.39,15.39 72.97,22.99 112.96,22.99 59.58,0 117.15,-18.59 172.73,-55.78l19.79 -10.79c0.8,0 1.6,-0.2 2.4,-0.4 0.8,-0.2 1.6,-0.2 2.4,-0.2 2,0 5.6,2.4 10.8,7.2 5.2,4.8 10.99,10.99 17.39,18.59 6.4,7.6 13.2,15.99 20.19,25.39 7,9.4 13.4,18.59 19.2,27.39 5.8,8.8 10.39,16.99 13.99,24.39 3.6,7.4 5.4,13.2 5.4,17.2 0,5.2 -1.2,9.6 -3.8,12.99 -2.6,3.4 -6.2,6.6 -10.6,9.8 -37.98,26.59 -79.17,47.38 -123.75,62.37 -44.58,14.99 -92.16,22.59 -142.54,22.59 -42.39,0 -82.97,-5.4 -121.96,-16.2 -38.98,-10.8 -75.57,-26.19 -109.56,-46.18 -33.99,-19.99 -64.97,-43.98 -92.77,-71.77 -27.99,-27.79 -51.78,-58.58 -71.57,-92.36 -19.99,-33.79 -35.39,-70.17 -46.18,-109.16 -10.79,-38.99 -16.19,-79.57 -16.19,-121.95 0,-41.99 5.4,-82.57 16.19,-121.75 10.8,-39.18 26.39,-75.77 46.39,-109.76 20.19,-33.99 43.98,-64.97 71.97,-92.96 27.79,-27.99 58.78,-51.98 92.77,-71.77 33.99,-19.79 70.57,-35.19 109.56,-46.18 38.98,-10.99 79.57,-16.39 121.95,-16.39 49.18,0 95.96,7.4 140.35,22.19 44.38,14.99 85.97,35.99 124.75,63.37z"/>
    <path class="fil0" d="M997.41 1160.36c0,-6.8 2.4,-12.8 7.2,-18.2 4.8,-5.4 11.2,-8.2 19.19,-8.2l110.96 0c6.8,0 13.2,2.6 19.2,7.6 5.99,4.99 8.99,11.19 8.99,18.79l0 435.43 418.64 0 0 -435.43c0,-7.2 2.6,-13.4 7.6,-18.59 5,-5.2 11.4,-7.8 19.39,-7.8l109.16 0c7.6,0 14.39,2.4 20.39,7 6,4.6 8.99,10.79 8.99,18.79l0 839.07c0,17.59 -9.6,26.39 -28.79,26.39l-109.76 0c-8.4,0 -14.99,-2.2 -19.79,-6.6 -4.8,-4.4 -7.2,-11 -7.2,-19.8l0 -247.1 -418.64 0 0 247.1c0,17.59 -9.8,26.39 -29.59,26.39l-109.56 0c-16.79,0 -25.59,-8.2 -26.39,-24.59l0 -840.27z"/>
    <path class="fil0" d="M2405.17 1107.59c2,-3.6 4.8,-7 8.4,-10 3.6,-3 8.8,-4.4 15.59,-4.4 5.99,0 10.99,1.6 14.99,5 3.99,3.4 7.39,7.4 9.99,11.8 2.6,4.4 4.8,8.6 6.6,12.59 1.8,3.99 3.2,6.8 4.39,8.39l10.2 23.99c60.78,140.75 120.96,280.69 180.33,420.04 59.38,139.34 119.16,279.49 179.53,420.23 0.4,1.2 1,3 1.6,5.6 0.6,2.6 0.8,4.8 0.8,6.4 0,11.99 -7.99,17.99 -23.99,17.99l-118.75 0c-16.4,0 -27.39,-7.6 -32.99,-22.59l-34.19 -87.77 -397.65 0 -33.58 86.56c-6,15.79 -17.2,23.79 -33.59,23.79l-118.15 0c-8.8,0 -15,-1.6 -18.59,-4.8 -3.6,-3.2 -5.4,-7.6 -5.4,-13.2 0,-2.4 0.4,-4.8 1,-7.2 0.6,-2.4 1.2,-4.6 2,-6.6 59.97,-140.75 119.75,-280.7 179.33,-419.64 59.58,-138.94 119.75,-278.49 180.53,-418.84 3.2,-8 6.6,-15.99 10.2,-23.79 3.6,-7.8 7.39,-15.59 11.39,-23.59zm24.59 289.08c-2.8,7.6 -5.6,15.2 -8.39,22.79 -2.8,7.6 -5.6,15.4 -8.4,23.39l-131.95 334.07 296.28 0 -131.35 -334.07c-2.4,-7.6 -5,-15.39 -7.8,-23.19 -2.8,-7.8 -5.6,-15.39 -8.4,-22.99z"/>
    <path class="fil0" d="M3681 1133.97c7.99,0 13.99,2.4 17.79,7 3.8,4.6 5.6,10.39 5.6,17.59l0 103.76c0,6.8 -2,12.4 -6.2,16.99 -4.2,4.6 -10.2,7 -17.79,7l-394.04 0 0 177.53 222.31 0c39.78,0 76.57,7.99 109.76,23.79 33.39,15.79 62.18,36.58 85.97,62.58 23.99,26.19 42.78,55.98 56.18,89.77 13.39,33.98 19.99,68.77 19.99,104.76 0,36.98 -6.8,72.17 -20.39,106.16 -13.59,33.79 -32.58,63.57 -57.18,89.36 -24.59,25.79 -53.78,46.39 -87.56,61.78 -33.79,15.39 -70.57,23.19 -110.56,23.19l-363.06 0c-15.59,0 -23.39,-7.6 -23.39,-22.79l0 -845.67c0,-6.8 2,-12.39 5.8,-16.59 3.8,-4.2 9.6,-6.2 17.59,-6.2l539.19 0zm-69.58 611.76c0,-17.59 -3.2,-34.78 -9.8,-51.38 -6.6,-16.59 -15.79,-31.18 -27.59,-43.78 -11.79,-12.59 -25.79,-22.59 -41.98,-30.19 -16.2,-7.6 -33.59,-11.4 -52.38,-11.4l-193.32 0 0 269.9 193.32 0c19.19,0 36.78,-3.8 52.98,-11.2 16.19,-7.4 29.99,-17.2 41.58,-29.59 11.59,-12.39 20.79,-26.59 27.39,-42.58 6.6,-15.99 9.8,-32.59 9.8,-49.78z"/>
   </g>
   <path class="fil2" d="M2571.54 464.1l0 71.85 -71.19 41.1 -53.25 30.75c0,-0.01 -0.01,-0.01 -0.01,-0.01l0 -143.68 124.44 -71.86 0.01 71.85zm0 152.13l0 174.21 -124.44 0 0 -142.43 124.44 -71.85 0.01 40.07zm-160.31 174.21l-124.45 0 0 -133.96 0 -0.19 0 -80.13 124.44 71.84 0.01 142.44zm17.93 -357.41l124.44 -71.86 -53.24 -30.74 -71.2 -41.09 -124.43 71.85 124.43 71.85z"/>
   <polygon class="fil2" points="2411.22,607.79 2411.21,464.1 2286.77,392.26 2286.79,535.95 "/>
  </g>
 </g>
</svg>
